<?xml version="1.0" encoding="utf-8"?>
<!-- Generator: Adobe Illustrator 27.7.0, SVG Export Plug-In . SVG Version: 6.00 Build 0)  -->
<svg version="1.1" id="Layer_1" xmlns="http://www.w3.org/2000/svg" xmlns:xlink="http://www.w3.org/1999/xlink" x="0px" y="0px"
	 viewBox="0 0 1200 600" style="enable-background:new 0 0 1200 600;" xml:space="preserve">
<style type="text/css">
	.st0{fill:#216C89;}
	.st1{fill:#4993AA;}
	.st2{fill:#0F4565;}
	.st3{fill:#6BE8E8;}
	.st4{fill:#9DEEF4;}
	.st5{fill:#4ACFDD;}
	.st6{fill:#E38017;}
	.st7{fill:#16AFB5;}
	.st8{fill:#494949;}
</style>
<g>
	<g>
		<polygon class="st0" points="228.83,482.2 295.05,414.38 295.05,278.73 228.83,346.56 		"/>
		<polygon class="st1" points="295.05,278.87 116.23,278.87 50,346.56 228.83,346.56 		"/>
		<rect x="50" y="346.56" class="st2" width="178.83" height="135.65"/>
	</g>
	<g>
		<polygon class="st3" points="228.83,321.27 295.05,253.44 295.05,117.8 228.83,185.62 		"/>
		<polygon class="st4" points="295.05,117.93 116.23,117.93 50,185.62 228.83,185.62 		"/>
		<rect x="50" y="185.62" class="st5" width="178.83" height="135.65"/>
	</g>
	<polygon class="st6" points="377.48,412.74 308.66,482.2 308.66,346.56 377.48,277.09 	"/>
	<polygon class="st7" points="457.07,412.74 388.25,482.2 388.25,346.56 457.07,277.09 	"/>
	<g>
		<g>
			<path class="st8" d="M561.8,284.14c15.1,25.84,22.58,37.88,26.23,44.84h0.24c4.71-8.05,14.29-23.28,27.43-44.84h23.98
				l-38.73,58.3l38.9,63.89h-25.57c-13.11-23.02-22.76-39.02-27.04-46.76h-0.24c-3.43,6.57-13.72,25.07-26.9,46.76h-24.33
				l38.21-60.46l-37.18-61.73H561.8z"/>
			<path class="st8" d="M746.7,378.34c0,8.4,0.74,21.12,1.81,27.99h-20.09c-0.83-4.12-1.68-10.89-1.79-18.09
				c-4.76,11.83-16.93,20.25-36.42,20.25c-29.92,0-39.36-19.88-39.36-37.12c0-19.09,12.52-39.06,56.01-39.06c6.66,0,12.11,0,17.87,0
				v-11.28c0-11.28-3.25-22.43-22.74-22.43c-17.09,0-22.72,7.99-24.59,20.6h-21.75c1.72-20.23,13.48-37.46,46.96-37.46
				c26.18,0,44.1,10.21,44.1,38.51V378.34z M725.41,347.96c-4.71,0-11.28,0-18.48,0c-28.1,0-33.39,11.41-33.39,21.97
				c0,11.22,6.79,20.56,21.56,20.56c23.06,0,30.31-15.52,30.31-40.02V347.96z"/>
			<path class="st8" d="M780.8,325.6c0-19.59-0.13-34.96-0.48-41.46h21.86c0.46,5.67,0.57,13.46,0.57,24.13
				c5.41-14.21,18.35-26.05,39.04-26.32v23.06c-27.04,0.72-38.69,15.41-38.69,42.09v59.22h-22.3V325.6z"/>
			<path class="st8" d="M860.73,325.6c0-19.59-0.13-34.96-0.48-41.46h21.86c0.46,5.67,0.57,13.46,0.57,24.13
				c5.41-14.21,18.35-26.05,39.04-26.32v23.06c-27.04,0.72-38.69,15.41-38.69,42.09v59.22h-22.3V325.6z"/>
			<path class="st8" d="M1026.32,378.34c0,8.4,0.74,21.12,1.81,27.99h-20.09c-0.83-4.12-1.68-10.89-1.79-18.09
				c-4.76,11.83-16.93,20.25-36.42,20.25c-29.92,0-39.36-19.88-39.36-37.12c0-19.09,12.52-39.06,56.01-39.06c6.66,0,12.11,0,17.87,0
				v-11.28c0-11.28-3.25-22.43-22.74-22.43c-17.09,0-22.72,7.99-24.59,20.6h-21.75c1.72-20.23,13.48-37.46,46.96-37.46
				c26.18,0,44.1,10.21,44.1,38.51V378.34z M1005.03,347.96c-4.71,0-11.28,0-18.48,0c-28.1,0-33.39,11.41-33.39,21.97
				c0,11.22,6.79,20.56,21.56,20.56c23.06,0,30.31-15.52,30.31-40.02V347.96z"/>
			<path class="st8" d="M1066.52,284.14c18.02,57.78,27.62,87.24,30.48,101.79h0.24c3.62-13.75,14.51-52.1,29.94-101.79H1150
				l-42.5,127.6c-12.55,37.55-23.61,44.67-45.01,44.67c-2.53,0-7.83-0.35-10.87-0.94V436.6c2.84,0.48,7.57,0.72,10.6,0.72
				c13.81,0,18.53-10.76,23.81-26.84l-43.44-126.34H1066.52z"/>
		</g>
	</g>
</g>
</svg>
